<?xml version="1.0" encoding="UTF-8" standalone="no"?>
<!-- Created with Inkscape (http://www.inkscape.org/) -->

<svg
   width="100"
   height="100.00031"
   viewBox="0 0 26.458333 26.458414"
   version="1.1"
   id="svg6048"
   inkscape:version="1.2.2 (732a01da63, 2022-12-09)"
   sodipodi:docname="arrow_thick_outline.svg"
   xml:space="preserve"
   xmlns:inkscape="http://www.inkscape.org/namespaces/inkscape"
   xmlns:sodipodi="http://sodipodi.sourceforge.net/DTD/sodipodi-0.dtd"
   xmlns="http://www.w3.org/2000/svg"
   xmlns:svg="http://www.w3.org/2000/svg"><sodipodi:namedview
     id="namedview6050"
     pagecolor="#ffffff"
     bordercolor="#000000"
     borderopacity="0.25"
     inkscape:showpageshadow="2"
     inkscape:pageopacity="0.0"
     inkscape:pagecheckerboard="0"
     inkscape:deskcolor="#d1d1d1"
     inkscape:document-units="mm"
     showgrid="false"
     inkscape:zoom="5.0076585"
     inkscape:cx="97.251041"
     inkscape:cy="55.614815"
     inkscape:window-width="2560"
     inkscape:window-height="1351"
     inkscape:window-x="-9"
     inkscape:window-y="176"
     inkscape:window-maximized="1"
     inkscape:current-layer="layer1-8"
     showguides="false"><inkscape:grid
       type="xygrid"
       id="grid6169"
       originx="-16.997926"
       originy="-23.6125" /></sodipodi:namedview><defs
     id="defs6045" /><g
     inkscape:label="Layer 1"
     inkscape:groupmode="layer"
     id="layer1"
     transform="translate(-16.997925,-23.6125)"><g
       inkscape:label="Layer 1"
       id="layer1-8"
       transform="translate(-7.7696094,17.182247)"><path
         id="path23078"
         style="color:#000000;fill:#ffffff;fill-opacity:1;stroke-linecap:round;stroke-linejoin:round;-inkscape-stroke:none"
         d="m 26.01431,18.710931 a 3.720675,3.720675 0 0 0 1.089856,2.630847 3.720675,3.720675 0 0 0 5.261694,0 l 1.910478,-1.909961 v 9.437667 a 3.720675,3.720675 0 0 0 3.720703,3.720703 3.720675,3.720675 0 0 0 3.720703,-3.720703 v -9.437667 l 1.909961,1.909961 a 3.720675,3.720675 0 0 0 5.261694,0 3.720675,3.720675 0 0 0 0,-5.261694 L 40.627888,7.8185725 a 3.7210471,3.7210471 0 0 0 -2.621029,-1.0862375 3.720675,3.720675 0 0 0 -0.0098,-0.0036 3.720675,3.720675 0 0 0 -2.630847,1.0898555 l -8.262028,8.2615115 a 3.720675,3.720675 0 0 0 -1.089856,2.630847 z m 0.92139,0 a 2.8,2.8 0 0 1 0.820105,-1.979208 L 36.01525,8.4696955 a 2.80028,2.80028 0 0 1 1.980757,-0.820105 2.80028,2.80028 0 0 1 1.980241,0.820105 l 8.262028,8.2620275 a 2.8,2.8 0 0 1 0,3.958932 2.8,2.8 0 0 1 -3.960998,0 L 40.79687,17.210247 V 28.86845 A 2.8,2.8 0 0 1 37.996007,31.668796 2.8,2.8 0 0 1 35.197212,28.86845 V 17.20818 l -3.482475,3.482475 a 2.8,2.8 0 0 1 -3.958932,0 2.8,2.8 0 0 1 -0.820105,-1.979724 z" /></g></g></svg>
